<svg width="76" height="56" viewBox="0 0 76 56" fill="none" xmlns="http://www.w3.org/2000/svg">
<g filter="url(#filter0_b_978_7534)">
<path d="M0 21.0938H6.94321V26.5312C6.94321 28.1881 5.60006 29.5312 3.94321 29.5312H3C1.34315 29.5312 0 28.1881 0 26.5312V21.0938Z" fill="#E9E9E9"/>
<path d="M13.5107 21.0938H20.4539V37.7812C20.4539 39.4381 19.1108 40.7812 17.4539 40.7812H16.5107C14.8539 40.7812 13.5107 39.4381 13.5107 37.7812V21.0938Z" fill="#E9E9E9"/>
<path d="M6.94238 8.625C6.94238 6.96815 8.28553 5.625 9.94238 5.625H10.8856C12.5424 5.625 13.8856 6.96815 13.8856 8.625V21.0937H6.94238V8.625Z" fill="#E9E9E9"/>
<path d="M20.4541 18.4688C20.4541 16.8119 21.7972 15.4688 23.4541 15.4688H24.3973C26.0542 15.4688 27.3973 16.8119 27.3973 18.4688V21.0937H20.4541V18.4688Z" fill="#E9E9E9"/>
<path d="M33.9648 3C33.9648 1.34315 35.308 0 36.9648 0H37.9081C39.5649 0 40.9081 1.34315 40.9081 3V21.0937H33.9648V3Z" fill="#E9E9E9"/>
<path d="M47.8516 12.8438C47.8516 11.1869 49.1947 9.84375 50.8516 9.84375H51.7948C53.4516 9.84375 54.7948 11.1869 54.7948 12.8438V21.0937H47.8516V12.8438Z" fill="#E9E9E9"/>
<path d="M61.7393 17.0625C61.7393 15.4056 63.0824 14.0625 64.7393 14.0625H65.6825C67.3393 14.0625 68.6825 15.4056 68.6825 17.0625V21.0937H61.7393V17.0625Z" fill="#E9E9E9"/>
<path d="M54.7939 36.75C54.7939 35.0931 56.1371 33.75 57.7939 33.75H58.7372C60.394 33.75 61.7372 35.0931 61.7372 36.75V37.7812C61.7372 39.4381 60.394 40.7812 58.7372 40.7812H57.7939C56.1371 40.7812 54.7939 39.4381 54.7939 37.7812V36.75Z" fill="#E9E9E9"/>
<path d="M20.4541 4.40625C20.4541 2.7494 21.7972 1.40625 23.4541 1.40625H24.3973C26.0542 1.40625 27.3973 2.7494 27.3973 4.40625V5.43749C27.3973 7.09434 26.0542 8.43749 24.3973 8.43749H23.4541C21.7972 8.43749 20.4541 7.09434 20.4541 5.43749V4.40625Z" fill="#E9E9E9"/>
<path d="M27.0225 21.0938H33.9657V29.3437C33.9657 31.0006 32.6225 32.3437 30.9657 32.3437H30.0225C28.3656 32.3437 27.0225 31.0006 27.0225 29.3437V21.0938Z" fill="#E9E9E9"/>
<path d="M40.9082 21.0938H47.8514V32.1562C47.8514 33.8131 46.5083 35.1562 44.8514 35.1562H43.9082C42.2513 35.1562 40.9082 33.8131 40.9082 32.1562V21.0938Z" fill="#E9E9E9"/>
<path d="M54.7939 21.0938H61.7372V25.125C61.7372 26.7818 60.394 28.125 58.7372 28.125H57.7939C56.1371 28.125 54.7939 26.7818 54.7939 25.125V21.0938Z" fill="#E9E9E9"/>
<path d="M68.3066 21.0938H75.2498V27.9375C75.2498 29.5943 73.9067 30.9375 72.2498 30.9375H71.3066C69.6498 30.9375 68.3066 29.5943 68.3066 27.9375V21.0938Z" fill="#E9E9E9"/>
<path d="M20.2801 55.375L17.2098 46.7852H19.0907L21.2645 53.1426L23.368 46.7852H25.2079L22.1317 55.375H20.2801ZM26.0399 55.375V46.7852H27.7743V55.375H26.0399ZM29.4383 46.7852H32.8719C33.5516 46.7852 34.0575 46.8145 34.3895 46.873C34.7254 46.9277 35.0243 47.0449 35.286 47.2246C35.5516 47.4043 35.7723 47.6445 35.9481 47.9453C36.1239 48.2422 36.2118 48.5762 36.2118 48.9473C36.2118 49.3496 36.1024 49.7188 35.8836 50.0547C35.6688 50.3906 35.3758 50.6426 35.0047 50.8105C35.5282 50.9629 35.9305 51.2227 36.2118 51.5898C36.493 51.957 36.6336 52.3887 36.6336 52.8848C36.6336 53.2754 36.5418 53.6562 36.3582 54.0273C36.1786 54.3945 35.9305 54.6895 35.6141 54.9121C35.3016 55.1309 34.9149 55.2656 34.4539 55.3164C34.1649 55.3477 33.4676 55.3672 32.3622 55.375H29.4383V46.7852ZM31.1727 48.2148V50.2012H32.3094C32.9852 50.2012 33.4051 50.1914 33.5692 50.1719C33.8661 50.1367 34.0985 50.0352 34.2664 49.8672C34.4383 49.6953 34.5243 49.4707 34.5243 49.1934C34.5243 48.9277 34.45 48.7129 34.3016 48.5488C34.1571 48.3809 33.9403 48.2793 33.6512 48.2441C33.4793 48.2246 32.9852 48.2148 32.1688 48.2148H31.1727ZM31.1727 51.6309V53.9277H32.7782C33.4032 53.9277 33.7997 53.9102 33.9676 53.875C34.2254 53.8281 34.4344 53.7148 34.5946 53.5352C34.7586 53.3516 34.8407 53.1074 34.8407 52.8027C34.8407 52.5449 34.7782 52.3262 34.6532 52.1465C34.5282 51.9668 34.3465 51.8359 34.1082 51.7539C33.8739 51.6719 33.3622 51.6309 32.5731 51.6309H31.1727ZM38.1043 55.375V46.7852H44.4735V48.2383H39.8387V50.1426H44.1512V51.5898H39.8387V53.9277H44.6375V55.375H38.1043ZM53.8543 55.375H51.9676L51.2176 53.4238H47.784L47.075 55.375H45.2352L48.5809 46.7852H50.4149L53.8543 55.375ZM50.661 51.9766L49.4774 48.7891L48.3172 51.9766H50.661ZM55.8231 55.375V48.2383H53.2743V46.7852H60.1004V48.2383H57.5575V55.375H55.8231Z" fill="#E9E9E9"/>
</g>
<defs>
<filter id="filter0_b_978_7534" x="-4" y="-4" width="83.25" height="63.375" filterUnits="userSpaceOnUse" color-interpolation-filters="sRGB">
<feFlood flood-opacity="0" result="BackgroundImageFix"/>
<feGaussianBlur in="BackgroundImageFix" stdDeviation="2"/>
<feComposite in2="SourceAlpha" operator="in" result="effect1_backgroundBlur_978_7534"/>
<feBlend mode="normal" in="SourceGraphic" in2="effect1_backgroundBlur_978_7534" result="shape"/>
</filter>
</defs>
</svg>
