<svg xmlns="http://www.w3.org/2000/svg" xmlns:xlink="http://www.w3.org/1999/xlink" width="512" zoomAndPan="magnify" viewBox="0 0 384 383.999986" height="512" preserveAspectRatio="xMidYMid meet" version="1.0"><defs><g/></defs><g fill="#ff3131" fill-opacity="1"><g transform="translate(64.824792, 262.288017)"><g><path d="M 125.375 -146.03125 L 125.375 0 L 89.75 0 L 89.75 -10.625 C 82.789062 -2.363281 72.359375 1.765625 58.453125 1.765625 C 48.742188 1.765625 39.882812 -0.492188 31.875 -5.015625 C 23.875 -9.546875 17.546875 -16.007812 12.890625 -24.40625 C 8.234375 -32.800781 5.90625 -42.507812 5.90625 -53.53125 C 5.90625 -64.550781 8.234375 -74.226562 12.890625 -82.5625 C 17.546875 -90.894531 23.875 -97.289062 31.875 -101.75 C 39.882812 -106.207031 48.742188 -108.4375 58.453125 -108.4375 C 71.179688 -108.4375 81.019531 -104.765625 87.96875 -97.421875 L 87.96875 -146.03125 Z M 66.328125 -27.953125 C 72.753906 -27.953125 78.066406 -30.210938 82.265625 -34.734375 C 86.460938 -39.265625 88.5625 -45.53125 88.5625 -53.53125 C 88.5625 -61.40625 86.492188 -67.570312 82.359375 -72.03125 C 78.234375 -76.488281 72.890625 -78.71875 66.328125 -78.71875 C 59.765625 -78.71875 54.382812 -76.488281 50.1875 -72.03125 C 45.988281 -67.570312 43.890625 -61.40625 43.890625 -53.53125 C 43.890625 -45.53125 45.988281 -39.265625 50.1875 -34.734375 C 54.382812 -30.210938 59.765625 -27.953125 66.328125 -27.953125 Z M 66.328125 -27.953125 "/></g></g></g><g fill="#ff3131" fill-opacity="1"><g transform="translate(182.121654, 262.288017)"><g><path d="M 81.484375 -108.4375 C 94.734375 -108.4375 105.390625 -104.5 113.453125 -96.625 C 121.523438 -88.757812 125.5625 -76.890625 125.5625 -61.015625 L 125.5625 0 L 88.171875 0 L 88.171875 -54.90625 C 88.171875 -69.46875 82.332031 -76.75 70.65625 -76.75 C 64.226562 -76.75 59.078125 -74.648438 55.203125 -70.453125 C 51.335938 -66.253906 49.40625 -59.957031 49.40625 -51.5625 L 49.40625 0 L 12 0 L 12 -146.03125 L 49.40625 -146.03125 L 49.40625 -96.828125 C 53.46875 -100.640625 58.253906 -103.523438 63.765625 -105.484375 C 69.273438 -107.453125 75.179688 -108.4375 81.484375 -108.4375 Z M 81.484375 -108.4375 "/></g></g></g></svg>