<svg xmlns="http://www.w3.org/2000/svg" fill="none" viewBox="46.47 20.3 105.06 54.98">
<path d="M147.42 61.434C145.147 61.434 143.306 59.5833 143.306 57.2977V36.5268C143.306 34.2413 145.147 32.3906 147.42 32.3906C149.693 32.3906 151.534 34.2413 151.534 36.5268V57.2977C151.534 59.5809 149.693 61.434 147.42 61.434Z" fill="white"/>
<path d="M147.42 28.5738C147.286 28.5738 147.149 28.5667 147.015 28.5525C146.881 28.5384 146.747 28.5194 146.616 28.4911C146.484 28.4651 146.355 28.432 146.226 28.3918C146.099 28.354 145.969 28.3067 145.847 28.2571C145.723 28.2051 145.6 28.146 145.483 28.0846C145.365 28.0207 145.248 27.9498 145.137 27.8766C145.024 27.8009 144.916 27.7206 144.813 27.6355C144.707 27.5504 144.606 27.4582 144.512 27.3613C144.416 27.2668 144.326 27.1651 144.239 27.0588C144.155 26.9548 144.075 26.846 143.999 26.7326C143.927 26.6215 143.856 26.5033 143.793 26.3852C143.732 26.267 143.673 26.1441 143.621 26.0188C143.572 25.8959 143.525 25.7659 143.487 25.6383C143.447 25.5083 143.414 25.3759 143.388 25.2459C143.36 25.1136 143.341 24.9788 143.327 24.8441C143.313 24.7094 143.306 24.5723 143.306 24.4376C143.306 24.3029 143.313 24.1658 143.327 24.0311C143.341 23.8963 143.36 23.7616 143.388 23.6293C143.414 23.4969 143.447 23.3645 143.487 23.2369C143.525 23.1069 143.572 22.9793 143.621 22.854C143.673 22.7311 143.732 22.6082 143.793 22.49C143.856 22.3695 143.927 22.2537 143.999 22.1402C144.075 22.0291 144.155 21.918 144.239 21.814C144.324 21.71 144.416 21.6084 144.512 21.5115C144.606 21.417 144.707 21.3248 144.813 21.2397C144.916 21.1546 145.024 21.0719 145.137 20.9986C145.248 20.923 145.365 20.8544 145.483 20.7906C145.6 20.7268 145.723 20.6701 145.847 20.6181C145.969 20.5661 146.099 20.5212 146.226 20.481C146.355 20.4408 146.484 20.4077 146.616 20.3817C146.747 20.3557 146.881 20.3345 147.015 20.3203C147.283 20.2943 147.556 20.2943 147.824 20.3203C147.958 20.3345 148.092 20.3557 148.224 20.3817C148.355 20.4077 148.487 20.4408 148.614 20.481C148.743 20.5212 148.87 20.5661 148.995 20.6181C149.117 20.6701 149.239 20.7268 149.357 20.7906C149.477 20.8544 149.592 20.923 149.705 20.9986C149.815 21.0719 149.926 21.1546 150.029 21.2397C150.133 21.3248 150.234 21.417 150.33 21.5115C150.424 21.6084 150.516 21.71 150.6 21.814C150.685 21.918 150.767 22.0291 150.84 22.1402C150.915 22.2537 150.983 22.3695 151.047 22.49C151.11 22.6082 151.167 22.7311 151.219 22.854C151.27 22.9793 151.315 23.1069 151.355 23.2369C151.395 23.3645 151.428 23.4969 151.454 23.6293C151.48 23.7616 151.501 23.8963 151.515 24.0311C151.527 24.1658 151.534 24.3029 151.534 24.4376C151.534 24.5723 151.527 24.7094 151.515 24.8441C151.501 24.9765 151.48 25.1136 151.454 25.2459C151.428 25.3759 151.395 25.5083 151.355 25.6383C151.315 25.7659 151.27 25.8959 151.219 26.0188C151.167 26.1441 151.11 26.267 151.047 26.3852C150.983 26.5033 150.915 26.6215 150.84 26.7326C150.767 26.846 150.685 26.9548 150.6 27.0588C150.516 27.1651 150.424 27.2668 150.33 27.3613C150.234 27.4582 150.133 27.5504 150.029 27.6355C149.926 27.7206 149.815 27.8009 149.705 27.8766C149.592 27.9498 149.477 28.0207 149.357 28.0846C149.239 28.146 149.117 28.2051 148.995 28.2571C148.87 28.3067 148.743 28.354 148.614 28.3918C148.487 28.432 148.355 28.4651 148.224 28.4911C148.092 28.5194 147.958 28.5384 147.824 28.5525C147.69 28.5667 147.554 28.5738 147.42 28.5738Z" fill="white"/>
<path d="M124 32.0311C121.708 32.0311 119.538 32.5653 117.606 33.513V24.437C117.606 22.1514 115.765 20.3008 113.492 20.3008C111.219 20.3008 109.378 22.1514 109.378 24.437V46.7324C109.378 54.8394 115.937 61.4337 124 61.4337C132.063 61.4337 138.621 54.8394 138.621 46.7324C138.621 38.6254 132.063 32.0311 124 32.0311ZM124 53.1613C120.473 53.1613 117.606 50.2777 117.606 46.7324C117.606 43.1871 120.473 40.3035 124 40.3035C127.526 40.3035 130.394 43.1871 130.394 46.7324C130.394 50.2777 127.526 53.1613 124 53.1613Z" fill="white"/>
<path d="M98.6259 42.8587C99.317 41.9936 100.163 41.0836 101.16 40.2587L101.158 40.2611C101.16 40.2587 101.162 40.2587 101.165 40.2564C101.339 40.1146 101.515 39.9728 101.696 39.838C101.91 39.6773 102.112 39.5048 102.295 39.311C104.465 36.9947 105.008 33.0428 104.538 31.1118C101.9 31.7358 99.6508 32.9199 97.7678 34.3215C95.4406 32.7946 92.789 32.0265 89.8106 32.0265C87.9442 32.0265 86.2046 32.3314 84.5944 32.9317C81.703 31.5703 78.2568 30.6367 74.2371 30.6367C74.2371 30.6367 73.6635 36.3589 78.3556 37.8716C86.207 39.7364 90.1068 46.4607 90.3066 46.768C91.0636 47.9379 92.2483 50.1148 92.9606 51.4478C92.0344 52.112 90.986 52.45 89.8106 52.45C88.2944 52.45 86.9827 51.8945 85.8802 50.786C84.7754 49.6775 84.2253 48.3256 84.2253 46.7325C84.2253 45.3357 84.6485 44.1255 85.4971 43.0997C82.9653 40.2587 79.5732 38.6232 77.9724 37.9614C76.0472 40.4927 75.0834 43.4165 75.0834 46.7325C75.0834 50.7766 76.515 54.2368 79.3781 57.118C82.2413 59.9991 85.718 61.4362 89.8083 61.4362C93.8986 61.4362 97.3753 59.9968 100.238 57.118C103.102 54.2392 104.533 50.7766 104.533 46.7325C104.533 44.1515 103.948 41.8092 102.782 39.7033C101.151 40.6015 99.6132 41.9227 98.6259 42.8587Z" fill="white"/>
<path d="M94.2488 53.555C94.2488 53.555 94.7824 55.044 94.6649 57.8259C94.6649 57.8259 97.34 54.7698 97.2224 52.5835C97.1002 50.3973 94.2488 53.555 94.2488 53.555Z" fill="#FB8818"/>
<path d="M71.294 54.5762L63.2521 45.3158L69.4628 39.0878C72.0533 36.4832 70.222 32.0303 66.5573 32.0279C65.4642 32.0279 64.4158 32.4628 63.6447 33.2404L54.6979 42.2148V24.4409C54.6979 22.1553 52.8573 20.3047 50.5841 20.3047C48.311 20.3047 46.4703 22.1553 46.4703 24.4409V57.3014C46.4703 59.5869 48.311 61.4376 50.5841 61.4376C52.8573 61.4376 54.6979 59.5869 54.6979 57.3014V53.8979L57.4153 51.1727L65.0998 60.0218C65.9954 61.0523 67.3377 61.57 68.6894 61.4069C71.9686 61.0074 73.4684 57.0792 71.294 54.5762Z" fill="white"/>
<path d="M60.925 74.5705H63.9621V75.2205H60.1798V69.9805H63.8587V70.6328H60.925V74.5705ZM60.8568 72.2424H63.5366V72.8782H60.8568V72.2424Z" fill="white"/>
<path d="M69.2631 75.2205V69.9805H71.4586C72.0134 69.9805 72.5047 70.0892 72.9278 70.309C73.351 70.5288 73.6824 70.8361 73.9175 71.2308C74.1526 71.6255 74.2701 72.0817 74.2701 72.6016C74.2701 73.1216 74.1526 73.5778 73.9175 73.9725C73.6824 74.3672 73.351 74.6745 72.9278 74.8943C72.5024 75.1141 72.0134 75.2228 71.4586 75.2228H69.2631V75.2205ZM70.0082 74.5705H71.4163C71.8489 74.5705 72.2226 74.4878 72.5376 74.3223C72.8526 74.1569 73.0971 73.9276 73.271 73.6298C73.445 73.332 73.532 72.9893 73.532 72.6016C73.532 72.2069 73.445 71.8642 73.271 71.5688C73.0971 71.2733 72.8526 71.0441 72.5376 70.881C72.2226 70.7155 71.8489 70.6352 71.4163 70.6352H70.0082V74.5705Z" fill="white"/>
<path d="M81.6654 75.278C80.9813 75.278 80.443 75.0818 80.0504 74.6871C79.6579 74.2924 79.4628 73.7157 79.4628 72.957V69.9766H80.208V72.9263C80.208 73.5101 80.3349 73.9379 80.5911 74.2073C80.8473 74.4768 81.207 74.6115 81.6748 74.6115C82.1473 74.6115 82.5093 74.4768 82.7655 74.2073C83.0218 73.9379 83.1487 73.5101 83.1487 72.9263V69.9766H83.8704V72.957C83.8704 73.7157 83.6753 74.2924 83.285 74.6871C82.8948 75.0818 82.3565 75.278 81.6654 75.278Z" fill="white"/>
<path d="M91.8206 75.2785C91.4233 75.2785 91.0566 75.2123 90.7228 75.08C90.3867 74.9476 90.0975 74.7609 89.8507 74.5174C89.6062 74.2764 89.4135 73.9927 89.2748 73.6689C89.1361 73.3451 89.0656 72.9882 89.0656 72.5982C89.0656 72.2083 89.1337 71.8514 89.2748 71.5275C89.4135 71.2037 89.6062 70.9201 89.8554 70.679C90.1022 70.438 90.3961 70.2489 90.7299 70.1165C91.066 69.9841 91.4304 69.918 91.8277 69.918C92.2296 69.918 92.601 69.9865 92.9395 70.1236C93.2781 70.2607 93.5695 70.464 93.807 70.7334L93.3227 71.2061C93.1252 70.9958 92.9019 70.8398 92.6528 70.7381C92.4036 70.6365 92.1379 70.5845 91.8559 70.5845C91.562 70.5845 91.2917 70.6341 91.0402 70.7334C90.7886 70.8327 90.5724 70.9721 90.389 71.1517C90.2057 71.3314 90.0623 71.5441 89.9612 71.7923C89.8601 72.0381 89.8084 72.3075 89.8084 72.5959C89.8084 72.8842 89.8601 73.1537 89.9612 73.3995C90.0623 73.6477 90.2057 73.8604 90.389 74.04C90.5724 74.2196 90.7886 74.3591 91.0402 74.4584C91.2917 74.5576 91.562 74.6073 91.8559 74.6073C92.1379 74.6073 92.4036 74.5553 92.6528 74.4536C92.9019 74.352 93.1229 74.1936 93.3227 73.9786L93.807 74.4513C93.5695 74.7207 93.2804 74.9263 92.9395 75.0658C92.601 75.21 92.2273 75.2785 91.8206 75.2785Z" fill="white"/>
<path d="M98.0524 75.2205L100.412 69.9805H101.151L103.518 75.2205H102.735L100.629 70.3988H100.927L98.8211 75.2205H98.0524ZM99.0585 73.9111L99.2606 73.3131H102.194L102.411 73.9111H99.0585Z" fill="white"/>
<path d="M109.159 75.2205V70.6328H107.373V69.9805H111.684V70.6328H109.898V75.2205H109.159Z" fill="white"/>
<path d="M116.59 75.2205V69.9805H117.335V75.2205H116.59Z" fill="white"/>
<path d="M125.347 75.28C124.949 75.28 124.58 75.2139 124.242 75.0791C123.901 74.9444 123.607 74.7553 123.36 74.5143C123.111 74.2732 122.918 73.9895 122.78 73.6657C122.641 73.3419 122.57 72.9874 122.57 72.6021C122.57 72.2192 122.638 71.8647 122.78 71.5385C122.918 71.2147 123.111 70.9311 123.36 70.69C123.607 70.4489 123.901 70.2599 124.239 70.1251C124.578 69.9904 124.947 69.9219 125.349 69.9219C125.746 69.9219 126.113 69.9881 126.447 70.1204C126.783 70.2528 127.074 70.4395 127.326 70.6829C127.577 70.9264 127.77 71.2076 127.906 71.5315C128.043 71.8553 128.111 72.2122 128.111 72.6021C128.111 72.9921 128.043 73.349 127.906 73.6728C127.77 73.9966 127.577 74.2803 127.326 74.5213C127.074 74.7624 126.783 74.9515 126.447 75.0839C126.108 75.2162 125.741 75.28 125.347 75.28ZM125.347 74.6159C125.633 74.6159 125.901 74.5663 126.146 74.467C126.39 74.3677 126.604 74.2259 126.785 74.0439C126.966 73.8619 127.107 73.6492 127.211 73.4034C127.312 73.1599 127.363 72.8929 127.363 72.6021C127.363 72.3138 127.312 72.0467 127.211 71.8009C127.11 71.5574 126.966 71.3424 126.785 71.1604C126.604 70.9784 126.39 70.8366 126.146 70.7373C125.901 70.638 125.633 70.5884 125.347 70.5884C125.053 70.5884 124.785 70.638 124.538 70.7373C124.293 70.8366 124.077 70.9784 123.894 71.1604C123.71 71.3424 123.567 71.5551 123.466 71.8009C123.365 72.0467 123.313 72.3138 123.313 72.6021C123.313 72.8905 123.365 73.1576 123.466 73.4034C123.567 73.6492 123.71 73.8619 123.894 74.0439C124.077 74.2259 124.291 74.3677 124.538 74.467C124.782 74.5663 125.053 74.6159 125.347 74.6159Z" fill="white"/>
<path d="M133.341 75.2205V69.9805H133.952L137.399 74.2845H137.079V69.9805H137.824V75.2205H137.213L133.767 70.9164H134.086V75.2205H133.341Z" fill="white"/>
</svg>