<svg viewBox="53.68 76.6 993.88 292.37" data-sanitized-data-name="Layer 1" data-name="Layer 1" id="Layer_1" xmlns="http://www.w3.org/2000/svg">
  <defs>
    <style>
      .cls-1 {
        fill: #efc385;
      }
    </style>
  </defs>
  <path d="m152.95,87.04c-1.83,7.81-28.81,113.31-28.81,113.61,0,.36-29.8-112.64-30.67-117.27-.86-4.24.1-5.33.1-5.33-13.3.05-26.6.1-39.89.15,0,.01,9.63,9.62,9.62,16.71,0,7.11-.02,214.68-.02,222.19s-1.66,13.65-8.66,18.31c12.61-4.03,25.22-7.96,37.84-11.8,0,0-5.03-2.46-5.03-6.81s.65-136.46.65-136.45c9.2,46.49,18.39,92.49,27.58,138.04,4.63-1.26,9.27-2.51,13.9-3.74,9.68-47.49,19.37-94.46,29.07-140.96,0,0-.15,124.68-.11,128.05.05,4.78-3.07,7.37-3.07,7.37,12.23-2.91,24.46-5.74,36.69-8.51,0,0-7.78-4.2-7.77-10.69,0-6.48.19-186.89.19-192.55s1.64-11.72,13.24-20.76c-15.23.04-30.46.08-45.69.12,0,0,2.68,2.2.85,10.33h-.01Z" class="cls-1"></path>
  <path d="m449.48,261.8c-1.38-3.05-25.7-63.7-30.76-76.41,14.79-8.95,24.59-24.14,24.6-41.31,0-7.06,0-14.11.01-21.17.01-24.69-22.06-44.7-49.3-44.7-22.04.02-44.09.05-66.13.08,0,0,14.56,4.69,14.54,20.55-.02,15.87-.17,163.07-.18,168.6,0,5.52-3.84,8.97-6.98,11.1,13.8-1.51,27.61-2.95,41.41-4.34,0,0-8.14-2.88-8.14-12.46,0-4.21.03-34.72.07-67.55,6.91-.14,13.82-.28,20.73-.4,1.43-.03,2.83-.12,4.23-.24,7.99,19.68,26.68,65.47,27.89,69.18,1.53,4.75-3.75,8.19-3.75,8.2,13.01-.7,26.02-1.36,39.03-1.96,0,0-5.75-3.72-7.28-7.16h0Zm-80.82-98.49c.03-30.53.05-56.29.06-56.29,9.25-.06,18.5-.11,27.75-.15,11.57-.05,20.94,8.44,20.94,18.95,0,6.55-.01,13.09-.02,19.64,0,9.49-8.48,17.29-18.92,17.43-9.93.13-19.87.27-29.8.42h-.01Z" class="cls-1"></path>
  <path d="m521.94,78.1h-10.98c-27.62-.02-50.03,20.16-50.04,45.07-.02,32.16-.03,64.33-.05,96.49-.02,35.36,21.57,51.67,48.23,51.47,3.52-.02,7.03-.05,10.55-.06,27.27-.14,49.98-18.03,49.37-53.26,0-32.49,0-64.97-.01-97.46,0-23.34-21.07-42.26-47.06-42.25h-.01Zm21.09,147.73c0,10.02-9.05,18.14-20.22,18.18-4.96.02-9.92.04-14.88.08-12.34.08-22.34-8.81-22.33-19.9.01-33.12.03-66.24.04-99.37,0-10.13,9.14-18.36,20.4-18.37,6.48,0,12.96-.01,19.43-.02,9.7,0,17.57,7.05,17.56,15.76v103.63h0Z" class="cls-1"></path>
  <path d="m702.93,212.05s-20.51,2.46-36.62-.55c0,0,5.27,5.28,1.07,15.51-4.21,10.23-12.93,15.95-25.59,14.81-12.66-1.14-23.88-11-24.27-28.84-.3-13.88-.03-71.23-.03-79.74s2.58-19.04,13.18-25.57c10.6-6.53,25.49-4.33,34.37,8.07,7.54,10.54,1.42,19.63,1.42,19.63,10.82.07,21.63.16,32.45.25,0,0-3.58-2.81-4.1-8.14-.52-5.33-.79-24.12-15.87-36.75-15.08-12.63-33.99-14.91-52.12-10.67-18.13,4.25-32.92,21.35-35.24,39.13-2.29,17.56-.87,98.7.41,106.52,1.28,7.82,6.27,24.98,24.4,35.36,18.13,10.38,39.42,10.19,52.93,1.74,13.51-8.46,19.26-18.04,23.47-29.42,4.21-11.37,3.92-17.9,10.14-21.34h0Z" class="cls-1"></path>
  <path d="m807.46,275.18c-2.22-8.48-34.69-175.74-35.56-182.69-.87-7.31,3.72-12.22,8.13-14.16-17.24-.03-34.49-.05-51.73-.07,0,0,11.4,5,9.98,15.58-1.42,10.82-35.59,158.53-37.7,165.47-2.1,7.16-5.3,10.58-7.44,12.37,11.63,1.01,23.27,2.05,34.9,3.14,0,0-6.26-3.46-3.46-12.33.97-3.06,4.9-17.36,9.64-34.84,12.43.8,24.85,1.63,37.28,2.5,4.16,20.7,7.58,37.88,7.98,40.06,1.35,7.46-2.86,10.01-2.86,10.01,12.24,1.62,24.47,3.28,36.7,5,0,0-3.64-1.96-5.86-10.05h0Zm-65.98-74.42c7.1-26.42,13.71-51.31,13.71-51.32,0,0,5.17,25.48,10.75,53.13-8.15-.62-16.31-1.22-24.46-1.81h0Z" class="cls-1"></path>
  <path d="m209.02,285.79c-2.2,8.56-6.01,10.69-6.01,10.69,12.88-2.02,25.75-3.98,38.64-5.9,0,0-4.49-2.61-3.19-10.49.38-2.3,3.69-20.46,7.72-42.34,13.1-1.13,26.19-2.22,39.3-3.28,5.31,18.33,9.7,33.32,10.78,36.53,3.11,9.29-3.44,13.05-3.44,13.05,12.25-1.35,24.52-2.65,36.77-3.91-2.29-1.85-5.73-5.4-8.07-12.9-2.35-7.27-40.97-162.27-42.66-173.64-1.68-11.12,7.89-15.39,7.89-15.39-18.19.32-33.75-.33-51.94,0,4.69,1.97,9.34,6.84,8.55,14.55-.8,7.34-32.16,184.08-34.35,193.05h0Zm68.33-79.52c-8.59.76-17.19,1.54-25.78,2.33,5.41-29.22,10.42-56.15,10.42-56.15,0,.01,7.41,26.11,15.36,53.82h0Z" class="cls-1"></path>
  <path d="m916.64,290.87c-.14-11.22-.18-188.75-.19-194.79,0-6.04,1.52-11.31,11.19-17.62-15.81-.04-31.61-.08-47.42-.11,0,0,11.98,5.91,11.99,19.08.01,13.16.12,108.79.12,108.79,0-.42-41.4-113.55-41.99-118.79-.58-5.65,3.15-8.15,4.68-9.14-15.23-.03-30.46-.06-45.69-.09,0,0,13.8,6.86,13.82,20.77.02,13.89.19,167.01.2,174.14,0,7.12-.43,10.54-5.48,13.54,12.44,2.03,24.87,4.12,37.3,6.27,0,0-5.75-7.52-5.89-12.78-.13-5.26-.13-112.33-.13-112.33,0-.44,42.5,118.16,43.84,123.73,1.64,6.19-2,8.94-2,8.94,10.53,1.79,21.06,3.62,31.59,5.5,0,0-5.81-3.89-5.95-15.11h0Z" class="cls-1"></path>
  <path d="m1011.01,328.11c12.19,2.85,24.37,5.78,36.55,8.78,0,0-4.5-3.16-6.32-10.75-1.79-8.59-38.2-224.42-38.61-230.69-.39-7.2,4.64-12.57,8.37-15.13-16.75-.06-33.49-.12-50.24-.17,0,0,9.35,5.58,9.62,15.07.35,13.44-34.54,195.5-36.43,202.93-1.91,8.08-6.3,9.48-6.31,9.48,11.73,2.8,23.46,5.66,35.18,8.58,0,0-6.25-4.82-4.6-13.2.58-2.96,4.34-20.08,8.95-41.12,12.66,2,25.32,4.06,37.97,6.17,5.12,27.53,9.38,50.83,9.63,52.68.64,4.76-3.76,7.37-3.76,7.36h0Zm-37.72-94.17c6.95-31.7,13.66-62.56,13.67-62.56,0,0,6.02,31.62,12.45,65.99-8.7-1.16-17.41-2.29-26.12-3.41h0Z" class="cls-1"></path>
  <g>
    <path d="m265.39,326.97h8.53l-1.17,3.18v32.82h13.04l3.28-1.14v7.14h-23.67l1.17-3.18v-35.64l-1.17-3.18Z" class="cls-1"></path>
    <path d="m294.24,365.79v-35.64l-1.17-3.18h24.1v7.14l-3.28-1.14h-13.47v12h8.78l3.28-1.14v8.28l-3.28-1.14h-8.78v12h13.47l3.28-1.14v7.14h-24.1l1.17-3.18Z" class="cls-1"></path>
    <path d="m337.87,335.37c0-5.04,3.46-8.4,8.65-8.4h15.39v7.14l-3.28-1.14h-10.94c-2.16,0-3.65,1.44-3.65,3.54v22.92c0,2.1,1.48,3.54,3.65,3.54h10.94l3.28-1.14v7.14h-15.39c-5.19,0-8.65-3.36-8.65-8.4v-25.2Z" class="cls-1"></path>
    <path d="m365.92,368.97l12.79-38.64-1.11-3.36h6.61l13.9,42h-8.4l.74-3.18-1.48-4.56h-13.9l-1.48,4.56.74,3.18h-8.41Zm21.01-13.74l-4.88-14.88-4.94,14.88h9.83Z" class="cls-1"></path>
    <path d="m410.35,326.97l-1.17,3.18,13.41,17.34v-17.34l-1.17-3.18h8.53l-1.17,3.18v35.64l1.17,3.18h-8.53l1.17-3.18v-7.44l-13.41-17.16v24.6l1.17,3.18h-8.53l1.17-3.18v-35.64l-1.17-3.18h8.53Z" class="cls-1"></path>
    <path d="m442.18,326.97l-1.17,3.18,13.41,17.34v-17.34l-1.17-3.18h8.53l-1.17,3.18v35.64l1.17,3.18h-8.53l1.17-3.18v-7.44l-13.41-17.16v24.6l1.17,3.18h-8.53l1.17-3.18v-35.64l-1.17-3.18h8.53Z" class="cls-1"></path>
    <path d="m465.48,368.97l12.79-38.64-1.11-3.36h6.61l13.9,42h-8.4l.74-3.18-1.48-4.56h-13.9l-1.48,4.56.74,3.18h-8.41Zm21.01-13.74l-4.88-14.88-4.94,14.88h9.83Z" class="cls-1"></path>
    <path d="m502.55,365.79v-35.64l-1.17-3.18h18.23c5.19,0,8.71,3.36,8.71,8.4v5.64c0,3.96-2.29,6.66-6.18,6.96h-.74.74c3.89.3,6.18,3,6.18,6.96v5.64c0,5.04-3.52,8.4-8.71,8.4h-18.23l1.17-3.18Zm15.94-20.82c2.16,0,3.65-1.44,3.65-3.54v-4.92c0-2.1-1.48-3.54-3.65-3.54h-9.76v12h9.76Zm0,18c2.16,0,3.65-1.44,3.65-3.54v-4.92c0-2.1-1.48-3.54-3.65-3.54h-9.76v12h9.76Z" class="cls-1"></path>
    <path d="m540,365.79l1.17,3.18h-8.53l1.17-3.18v-35.64l-1.17-3.18h8.53l-1.17,3.18v35.64Z" class="cls-1"></path>
    <path d="m553.84,350.97c-5.19,0-8.65-3.36-8.65-8.4v-7.2c0-5.04,3.46-8.4,8.65-8.4h15.39v7.14l-3.28-1.14h-10.94c-2.16,0-3.65,1.44-3.65,3.54v4.92c0,2.1,1.48,3.54,3.65,3.54h6.55c5.19,0,8.65,3.36,8.65,8.4v7.2c0,5.04-3.46,8.4-8.65,8.4h-15.39v-7.14l3.28,1.14h10.94c2.16,0,3.65-1.44,3.65-3.54v-4.92c0-2.1-1.48-3.54-3.65-3.54h-6.55Z" class="cls-1"></path>
    <path d="m598.83,326.97l-1.17,3.18v.42l9.89,14.34,9.89-14.34v-.42l-1.17-3.18h8.53l-1.17,3.18v35.64l1.17,3.18h-8.53l1.17-3.18v-23.82l-9.89,14.28-9.89-14.28v23.82l1.17,3.18h-8.53l1.17-3.18v-35.64l-1.17-3.18h8.53Z" class="cls-1"></path>
    <path d="m628.49,368.97l12.79-38.64-1.11-3.36h6.61l13.9,42h-8.4l.74-3.18-1.48-4.56h-13.9l-1.48,4.56.74,3.18h-8.41Zm21.01-13.74l-4.88-14.88-4.94,14.88h9.83Z" class="cls-1"></path>
    <path d="m682.62,326.97c5.19,0,8.71,3.36,8.71,8.4v9.24c0,4.44-2.72,7.56-6.86,8.28l7.35,16.08h-9.15l.74-3.18-5.87-12.78h-5.81v12.78l1.17,3.18h-8.53l1.17-3.18v-35.64l-1.17-3.18h18.23Zm-10.88,6v14.04h9.76c2.16,0,3.65-1.44,3.65-3.54v-6.96c0-2.1-1.48-3.54-3.65-3.54h-9.76Z" class="cls-1"></path>
    <path d="m713.58,326.97c5.19,0,8.65,3.36,8.65,8.4v25.2c0,5.04-3.46,8.4-8.65,8.4h-8.47c-5.19,0-8.65-3.36-8.65-8.4v-25.2c0-5.04,3.46-8.4,8.65-8.4h8.47Zm-1.17,36c2.16,0,3.65-1.44,3.65-3.54v-22.92c0-2.1-1.48-3.54-3.65-3.54h-6.12c-2.16,0-3.65,1.44-3.65,3.54v22.92c0,2.1,1.48,3.54,3.65,3.54h6.12Z" class="cls-1"></path>
    <path d="m727.17,335.37c0-5.04,3.46-8.4,8.65-8.4h15.39v7.14l-3.28-1.14h-10.94c-2.16,0-3.65,1.44-3.65,3.54v22.92c0,2.1,1.48,3.54,3.65,3.54h10.94l3.28-1.14v7.14h-15.39c-5.19,0-8.65-3.36-8.65-8.4v-25.2Z" class="cls-1"></path>
    <path d="m755.23,368.97l12.79-38.64-1.11-3.36h6.61l13.9,42h-8.4l.74-3.18-1.48-4.56h-13.9l-1.48,4.56.74,3.18h-8.41Zm21.01-13.74l-4.88-14.88-4.94,14.88h9.83Z" class="cls-1"></path>
    <path d="m798.49,365.79l1.17,3.18h-8.53l1.17-3.18v-35.64l-1.17-3.18h8.53l-1.17,3.18v35.64Z" class="cls-1"></path>
    <path d="m811.89,326.97l-1.17,3.18,13.41,17.34v-17.34l-1.17-3.18h8.53l-1.17,3.18v35.64l1.17,3.18h-8.53l1.17-3.18v-7.44l-13.41-17.16v24.6l1.17,3.18h-8.53l1.17-3.18v-35.64l-1.17-3.18h8.53Z" class="cls-1"></path>
  </g>
</svg>